<svg width="204" height="82" viewBox="0 0 204 82" fill="none" xmlns="http://www.w3.org/2000/svg">
<path d="M21.8323 66.5873C39.2549 75.1628 57.7061 76.6686 76.1227 78.1453C92.1495 79.4304 108.21 80.1344 124.268 79.9786C138.281 79.8426 152.296 79.0348 166.087 75.475C170.85 74.2455 179.304 71.4868 183.984 69.3772C187.504 67.7906 193.869 64.3501 196.935 61.0874C199.092 58.7915 202.604 53.1649 201.911 48.7722C200.717 41.2005 192.822 34.2662 188.93 31.1961C180.228 24.3304 165.747 16.5818 156.314 12.544C146.706 8.43079 135.585 5.17771 125.497 3.57662C109.442 1.02865 92.7481 1.87842 76.6923 3.93531C63.7748 5.59016 50.973 8.81591 38.5002 13.5802C30.4116 16.6698 22.1658 20.3636 14.9673 26.294C9.07099 31.1515 0.714188 40.3037 2.16666 50.9243C3.5445 60.9991 14.086 65.8585 20.3034 68.2612C40.0611 75.8967 61.1081 75.928 81.4588 74.4786" stroke="#1E80FE" stroke-width="3" stroke-linecap="round"/>
</svg>
