<svg width="20" height="16" viewBox="0 0 20 16" fill="none" xmlns="http://www.w3.org/2000/svg">
<path fill-rule="evenodd" clip-rule="evenodd" d="M2.09363 6.54069C7.01494 4.39654 10.2966 2.98299 11.9386 2.30003C16.6267 0.350038 17.6009 0.0113045 18.2358 0.000119259C18.3755 -0.0023408 18.6877 0.0322689 18.89 0.196391C19.0608 0.334973 19.1078 0.522176 19.1303 0.653567C19.1528 0.784957 19.1808 1.08427 19.1585 1.31814C18.9044 3.98753 17.8052 10.4654 17.2459 13.4552C17.0093 14.7203 16.5433 15.1444 16.0922 15.186C15.1119 15.2762 14.3674 14.5381 13.4179 13.9157C11.9321 12.9417 11.0928 12.3354 9.65053 11.385C7.9838 10.2866 9.06427 9.68294 10.0141 8.69636C10.2627 8.43817 14.5821 4.50931 14.6657 4.1529C14.6762 4.10832 14.6859 3.94217 14.5872 3.85443C14.4885 3.7667 14.3428 3.7967 14.2377 3.82056C14.0886 3.85438 11.7151 5.42324 7.11694 8.52713C6.44321 8.98977 5.83296 9.21518 5.2862 9.20337C4.68345 9.19035 3.52398 8.86256 2.66204 8.58237C1.60483 8.23871 0.764588 8.05702 0.837754 7.47338C0.875864 7.16938 1.29449 6.85849 2.09363 6.54069Z" fill="#F9FAFE"/>
</svg>
